<svg width="33" height="38" fill="none" xmlns="http://www.w3.org/2000/svg"><path d="M16.5 38C25.575 38 33 30.6452 33 21.6559c-9.075 0-16.5 7.2527-16.5 16.3441ZM4.7438 16.6505c0 2.5538 2.0625 4.4947 4.5374 4.4947.9282 0 1.8563-.3065 2.5782-.8172v.3064c0 2.5538 2.0625 4.4946 4.5375 4.4946 2.5781 0 4.5375-2.043 4.5375-4.4946v-.3064c.7218.5107 1.65.8172 2.5781.8172 2.5781 0 4.5375-2.0431 4.5375-4.4947 0-1.8387-1.0312-3.3709-2.5781-4.086 1.5469-.715 2.5781-2.2473 2.5781-4.086 0-2.5538-2.0625-4.4946-4.5375-4.4946-.9281 0-1.8563.3064-2.5781.8172v-.3065C20.9344 1.941 18.8719 0 16.3969 0c-2.5782 0-4.5375 2.043-4.5375 4.4946v.3065c-.7219-.5108-1.65-.8172-2.5782-.8172-2.578 0-4.5374 2.043-4.5374 4.4946 0 1.8387 1.0312 3.371 2.578 4.086-1.4437.7151-2.578 2.2473-2.578 4.086ZM16.5 7.9677c2.5781 0 4.5375 2.0431 4.5375 4.4947 0 2.5537-2.0625 4.4946-4.5375 4.4946-2.5781 0-4.5375-2.043-4.5375-4.4946S13.9219 7.9677 16.5 7.9677ZM0 21.656C0 30.6452 7.425 38 16.5 38c0-9.0914-7.425-16.3441-16.5-16.3441Z" fill="#63D1BB"/></svg>